<svg xmlns="http://www.w3.org/2000/svg" width="60" height="16" viewBox="0 0 60 16">
  <path fill-rule="evenodd" d="M854.3,124.54 C853.82,124.54 852.88,124.68 852.88,123.86 C852.88,122.56 855,123.84 855,122.52 C855,122.12 854.72,121.84 854.3,121.84 L851.96,121.84 C851.08,121.84 851.08,120.52 851.96,120.52 L854.3,120.52 C856.16,120.52 857.02,122.7 855.74,123.96 C855.38,124.32 854.88,124.54 854.3,124.54 Z M851.96,116.48 C851.08,116.48 851.08,115.14 851.96,115.14 L854.3,115.14 C856.16,115.14 857.02,117.36 855.74,118.6 C855.06,119.26 854.38,119.18 853.56,119.18 C852.68,119.18 852.68,117.84 853.56,117.84 C854.1,117.84 855,117.98 855,117.16 C855,116.78 854.72,116.48 854.3,116.48 L851.96,116.48 Z M849.94,126.56 C849.94,127.44 848.6,127.44 848.6,126.56 L848.6,113.12 C848.6,112.76 848.9,112.44 849.26,112.44 L854.54,112.44 C857.28,112.44 859.18,114.6 859.18,117.12 C859.18,118.06 858.94,119 858.36,119.84 C860.48,122.92 858.3,127.24 854.56,127.24 L851.96,127.24 C851.08,127.24 851.08,125.88 851.96,125.88 L854.56,125.88 C857.62,125.88 858.78,122.14 857.02,120.34 C856.24,119.5 857.84,119.26 857.84,117.16 C857.84,115.32 856.38,113.8 854.54,113.8 L849.94,113.8 L849.94,126.56 Z M872.257143,125.86 C872.637143,125.86 872.917143,126.16 872.917143,126.54 C872.917143,126.9 872.637143,127.2 872.257143,127.2 L864.477143,127.2 C864.097143,127.2 863.797143,126.9 863.797143,126.54 L863.797143,113.16 C863.797143,112.8 864.097143,112.5 864.477143,112.5 C864.837143,112.5 865.137143,112.8 865.137143,113.16 L865.137143,125.86 L872.257143,125.86 Z M866.477143,113.16 C866.477143,112.8 866.777143,112.5 867.137143,112.5 C867.517143,112.5 867.817143,112.8 867.817143,113.16 L867.817143,123.18 L872.257143,123.18 C872.637143,123.18 872.917143,123.48 872.917143,123.86 C872.917143,124.22 872.637143,124.52 872.257143,124.52 L867.137143,124.52 C866.777143,124.52 866.477143,124.22 866.477143,123.86 L866.477143,113.16 Z M891.934286,117.54 C892.034286,117.9 891.854286,118.28 891.494286,118.38 C891.134286,118.5 890.734286,118.3 890.634286,117.94 C890.214286,116.66 889.414286,115.56 888.314286,114.76 C887.274286,114.02 885.974286,113.56 884.554286,113.56 C876.214286,113.56 876.214286,126.08 884.554286,126.08 C885.974286,126.08 887.274286,125.64 888.314286,124.88 C889.414286,124.1 890.214286,123 890.634286,121.7 C890.734286,121.34 891.134286,121.16 891.494286,121.26 C891.854286,121.36 892.034286,121.76 891.934286,122.12 C891.434286,123.68 890.434286,125.04 889.134286,125.98 C887.834286,126.9 886.274286,127.46 884.554286,127.46 C874.414286,127.46 874.414286,112.2 884.554286,112.2 C886.274286,112.2 887.834286,112.74 889.134286,113.66 C890.434286,114.62 891.434286,115.96 891.934286,117.54 Z M880.434286,122.24 C880.234286,121.9 880.354286,121.52 880.674286,121.32 C881.014286,121.14 881.414286,121.24 881.594286,121.58 C881.914286,122.1 882.354286,122.56 882.874286,122.84 C883.354286,123.14 883.934286,123.32 884.554286,123.32 C885.514286,123.32 886.374286,122.94 886.974286,122.3 C887.614286,121.68 887.994286,120.8 887.994286,119.82 C887.994286,118.86 887.614286,117.98 886.974286,117.36 C886.374286,116.74 885.514286,116.34 884.554286,116.34 C883.934286,116.34 883.374286,116.5 882.874286,116.8 C882.354286,117.1 881.914286,117.54 881.594286,118.06 C881.414286,118.4 881.014286,118.52 880.674286,118.34 C880.354286,118.16 880.234286,117.74 880.434286,117.4 C880.854286,116.66 881.454286,116.04 882.174286,115.62 C882.894286,115.2 883.714286,114.98 884.554286,114.98 C885.894286,114.98 887.094286,115.52 887.974286,116.4 C888.814286,117.28 889.354286,118.48 889.354286,119.82 C889.354286,121.16 888.814286,122.36 887.974286,123.24 C887.094286,124.14 885.894286,124.68 884.554286,124.68 C883.714286,124.68 882.894286,124.44 882.174286,124.04 C881.454286,123.6 880.854286,122.98 880.434286,122.24 Z M907.731429,125.76 C907.731429,126 907.591429,126.22 907.371429,126.34 C902.371429,129.1 896.171429,126.06 896.071429,119.98 C895.971429,114.28 901.271429,111.02 906.871429,112.82 C907.831429,113.12 907.411429,114.4 906.471429,114.08 C901.771429,112.56 897.331429,115.18 897.411429,119.96 C897.491429,125 902.531429,127.26 906.391429,125.36 L906.391429,119.84 C906.391429,118.96 907.731429,118.96 907.731429,119.84 L907.731429,125.76 Z M906.671429,115.58 C907.471429,115.96 906.931429,117.16 906.131429,116.82 C905.411429,116.5 904.571429,116.36 903.611429,116.38 C899.051429,116.56 899.191429,123.3 903.651429,123.26 L903.651429,119.84 C903.651429,118.96 905.011429,118.96 905.011429,119.84 L905.011429,123.88 C905.011429,124.6 904.091429,124.62 903.591429,124.62 C897.511429,124.62 897.231429,115.28 903.571429,115.06 C904.751429,115.02 905.771429,115.2 906.671429,115.58 Z" transform="translate(-848 -112)"/>
</svg>
