<svg xmlns="http://www.w3.org/2000/svg" width="61" height="16" viewBox="0 0 61 16">
  <path fill-rule="evenodd" d="M97.44,112.8 C98.24,113.14 97.74,114.36 96.92,114.04 C96.12,113.7 95.28,113.54 94.42,113.54 C90.82,113.54 88.26,116.26 88.26,119.78 C88.28,122.92 90.38,125.98 94.48,125.98 C95.34,125.98 96.14,125.8 96.92,125.5 C97.74,125.16 98.24,126.4 97.44,126.72 C96.5,127.1 95.5,127.3 94.48,127.3 C89.5,127.3 86.98,123.56 86.96,119.82 C86.94,116.02 89.44,112.22 94.48,112.22 C95.5,112.22 96.5,112.42 97.44,112.8 Z M96.52,122.72 C97.28,122.32 97.92,123.46 97.14,123.88 C96.28,124.38 95.34,124.6 94.42,124.58 C91.98,124.54 89.82,122.74 89.82,119.78 C89.82,115.66 93.9,113.84 97.14,115.66 C97.92,116.06 97.28,117.24 96.52,116.8 C94.2,115.52 91.14,116.66 91.14,119.78 C91.14,121.98 92.68,123.18 94.4,123.24 C95.1,123.26 95.84,123.1 96.52,122.72 Z M116.697143,117.54 C116.797143,117.9 116.617143,118.28 116.257143,118.38 C115.897143,118.5 115.497143,118.3 115.397143,117.94 C114.977143,116.66 114.177143,115.56 113.077143,114.76 C112.037143,114.02 110.737143,113.56 109.317143,113.56 C100.977143,113.56 100.977143,126.08 109.317143,126.08 C110.737143,126.08 112.037143,125.64 113.077143,124.88 C114.177143,124.1 114.977143,123 115.397143,121.7 C115.497143,121.34 115.897143,121.16 116.257143,121.26 C116.617143,121.36 116.797143,121.76 116.697143,122.12 C116.197143,123.68 115.197143,125.04 113.897143,125.98 C112.597143,126.9 111.037143,127.46 109.317143,127.46 C99.177143,127.46 99.177143,112.2 109.317143,112.2 C111.037143,112.2 112.597143,112.74 113.897143,113.66 C115.197143,114.62 116.197143,115.96 116.697143,117.54 Z M105.197143,122.24 C104.997143,121.9 105.117143,121.52 105.437143,121.32 C105.777143,121.14 106.177143,121.24 106.357143,121.58 C106.677143,122.1 107.117143,122.56 107.637143,122.84 C108.117143,123.14 108.697143,123.32 109.317143,123.32 C110.277143,123.32 111.137143,122.94 111.737143,122.3 C112.377143,121.68 112.757143,120.8 112.757143,119.82 C112.757143,118.86 112.377143,117.98 111.737143,117.36 C111.137143,116.74 110.277143,116.34 109.317143,116.34 C108.697143,116.34 108.137143,116.5 107.637143,116.8 C107.117143,117.1 106.677143,117.54 106.357143,118.06 C106.177143,118.4 105.777143,118.52 105.437143,118.34 C105.117143,118.16 104.997143,117.74 105.197143,117.4 C105.617143,116.66 106.217143,116.04 106.937143,115.62 C107.657143,115.2 108.477143,114.98 109.317143,114.98 C110.657143,114.98 111.857143,115.52 112.737143,116.4 C113.577143,117.28 114.117143,118.48 114.117143,119.82 C114.117143,121.16 113.577143,122.36 112.737143,123.24 C111.857143,124.14 110.657143,124.68 109.317143,124.68 C108.477143,124.68 107.657143,124.44 106.937143,124.04 C106.217143,123.6 105.617143,122.98 105.197143,122.24 Z M126.134286,124.54 L124.814286,124.54 C124.454286,124.54 124.154286,124.24 124.154286,123.86 C124.154286,123.5 124.454286,123.2 124.814286,123.2 L126.134286,123.2 C128.114286,123.2 129.374286,121.74 129.374286,119.84 C129.374286,117.96 128.114286,116.5 126.134286,116.5 L125.474286,116.5 L125.474286,121.18 C125.474286,121.56 125.194286,121.86 124.814286,121.86 C124.454286,121.86 124.154286,121.56 124.154286,121.18 L124.154286,115.84 C124.154286,115.46 124.454286,115.16 124.814286,115.16 L126.134286,115.16 C128.874286,115.16 130.694286,117.22 130.694286,119.84 C130.694286,122.48 128.874286,124.54 126.134286,124.54 Z M122.814286,126.54 C122.814286,126.9 122.514286,127.2 122.134286,127.2 C121.774286,127.2 121.474286,126.9 121.474286,126.54 L121.474286,113.16 C121.474286,112.8 121.774286,112.5 122.134286,112.5 L126.134286,112.5 C130.474286,112.5 133.494286,115.62 133.494286,119.84 C133.494286,124.08 130.474286,127.2 126.134286,127.2 L124.794286,127.2 C124.434286,127.2 124.134286,126.9 124.134286,126.54 C124.134286,126.16 124.434286,125.86 124.794286,125.86 L126.134286,125.86 C129.714286,125.86 132.154286,123.34 132.154286,119.84 C132.154286,116.36 129.714286,113.84 126.134286,113.84 L122.814286,113.84 L122.814286,126.54 Z M145.811429,115.18 C146.191429,115.18 146.491429,115.46 146.491429,115.84 C146.491429,116.2 146.191429,116.5 145.811429,116.5 L142.231429,116.5 L142.231429,117.84 L144.571429,117.84 C144.951429,117.84 145.251429,118.14 145.251429,118.52 C145.251429,118.88 144.951429,119.18 144.571429,119.18 L141.571429,119.18 C141.191429,119.18 140.891429,118.88 140.891429,118.52 L140.891429,115.84 C140.891429,115.46 141.191429,115.18 141.571429,115.18 L145.811429,115.18 Z M144.571429,120.52 C144.951429,120.52 145.251429,120.82 145.251429,121.18 C145.251429,121.56 144.951429,121.86 144.571429,121.86 L142.231429,121.86 L142.231429,123.18 L145.811429,123.18 C146.191429,123.18 146.491429,123.48 146.491429,123.86 C146.491429,124.22 146.191429,124.52 145.811429,124.52 L141.571429,124.52 C141.191429,124.52 140.891429,124.22 140.891429,123.86 L140.891429,121.18 C140.891429,120.82 141.191429,120.52 141.571429,120.52 L144.571429,120.52 Z M145.811429,125.86 C146.191429,125.86 146.491429,126.16 146.491429,126.54 C146.491429,126.9 146.191429,127.2 145.811429,127.2 L138.891429,127.2 C138.531429,127.2 138.231429,126.9 138.231429,126.54 L138.231429,113.16 C138.231429,112.8 138.531429,112.5 138.891429,112.5 L145.811429,112.5 C146.191429,112.5 146.491429,112.8 146.491429,113.16 C146.491429,113.54 146.191429,113.84 145.811429,113.84 L139.571429,113.84 L139.571429,125.86 L145.811429,125.86 Z" transform="translate(-86 -112)"/>
</svg>
