<svg xmlns="http://www.w3.org/2000/svg" width="64" height="16" viewBox="0 0 64 16">
  <path fill-rule="evenodd" d="M278.18,115.18 C278.56,115.18 278.86,115.46 278.86,115.84 C278.86,116.2 278.56,116.5 278.18,116.5 L274.6,116.5 L274.6,117.84 L276.94,117.84 C277.3,117.84 277.6,118.14 277.6,118.52 C277.6,118.88 277.3,119.18 276.94,119.18 L273.94,119.18 C273.56,119.18 273.26,118.88 273.26,118.52 L273.26,115.84 C273.26,115.46 273.56,115.18 273.94,115.18 L278.18,115.18 Z M276.94,120.52 C277.3,120.52 277.6,120.82 277.6,121.18 C277.6,121.56 277.3,121.86 276.94,121.86 L274.6,121.86 L274.6,126.54 C274.6,126.9 274.3,127.2 273.94,127.2 C273.56,127.2 273.26,126.9 273.26,126.54 L273.26,121.18 C273.26,120.82 273.56,120.52 273.94,120.52 L276.94,120.52 Z M271.92,126.54 C271.92,126.9 271.62,127.2 271.26,127.2 C270.88,127.2 270.6,126.9 270.6,126.54 L270.6,113.16 C270.6,112.8 270.88,112.5 271.26,112.5 L278.18,112.5 C278.56,112.5 278.86,112.8 278.86,113.16 C278.86,113.54 278.56,113.84 278.18,113.84 L271.92,113.84 L271.92,126.54 Z M297.777143,117.54 C297.877143,117.9 297.697143,118.28 297.337143,118.38 C296.977143,118.5 296.577143,118.3 296.477143,117.94 C296.057143,116.66 295.257143,115.56 294.157143,114.76 C293.117143,114.02 291.817143,113.56 290.397143,113.56 C282.057143,113.56 282.057143,126.08 290.397143,126.08 C291.817143,126.08 293.117143,125.64 294.157143,124.88 C295.257143,124.1 296.057143,123 296.477143,121.7 C296.577143,121.34 296.977143,121.16 297.337143,121.26 C297.697143,121.36 297.877143,121.76 297.777143,122.12 C297.277143,123.68 296.277143,125.04 294.977143,125.98 C293.677143,126.9 292.117143,127.46 290.397143,127.46 C280.257143,127.46 280.257143,112.2 290.397143,112.2 C292.117143,112.2 293.677143,112.74 294.977143,113.66 C296.277143,114.62 297.277143,115.96 297.777143,117.54 Z M286.277143,122.24 C286.077143,121.9 286.197143,121.52 286.517143,121.32 C286.857143,121.14 287.257143,121.24 287.437143,121.58 C287.757143,122.1 288.197143,122.56 288.717143,122.84 C289.197143,123.14 289.777143,123.32 290.397143,123.32 C291.357143,123.32 292.217143,122.94 292.817143,122.3 C293.457143,121.68 293.837143,120.8 293.837143,119.82 C293.837143,118.86 293.457143,117.98 292.817143,117.36 C292.217143,116.74 291.357143,116.34 290.397143,116.34 C289.777143,116.34 289.217143,116.5 288.717143,116.8 C288.197143,117.1 287.757143,117.54 287.437143,118.06 C287.257143,118.4 286.857143,118.52 286.517143,118.34 C286.197143,118.16 286.077143,117.74 286.277143,117.4 C286.697143,116.66 287.297143,116.04 288.017143,115.62 C288.737143,115.2 289.557143,114.98 290.397143,114.98 C291.737143,114.98 292.937143,115.52 293.817143,116.4 C294.657143,117.28 295.197143,118.48 295.197143,119.82 C295.197143,121.16 294.657143,122.36 293.817143,123.24 C292.937143,124.14 291.737143,124.68 290.397143,124.68 C289.557143,124.68 288.737143,124.44 288.017143,124.04 C287.297143,123.6 286.697143,122.98 286.277143,122.24 Z M317.054286,117.54 C317.154286,117.9 316.974286,118.28 316.614286,118.38 C316.254286,118.5 315.854286,118.3 315.754286,117.94 C315.334286,116.66 314.534286,115.56 313.434286,114.76 C312.394286,114.02 311.094286,113.56 309.674286,113.56 C301.334286,113.56 301.334286,126.08 309.674286,126.08 C311.094286,126.08 312.394286,125.64 313.434286,124.88 C314.534286,124.1 315.334286,123 315.754286,121.7 C315.854286,121.34 316.254286,121.16 316.614286,121.26 C316.974286,121.36 317.154286,121.76 317.054286,122.12 C316.554286,123.68 315.554286,125.04 314.254286,125.98 C312.954286,126.9 311.394286,127.46 309.674286,127.46 C299.534286,127.46 299.534286,112.2 309.674286,112.2 C311.394286,112.2 312.954286,112.74 314.254286,113.66 C315.554286,114.62 316.554286,115.96 317.054286,117.54 Z M305.554286,122.24 C305.354286,121.9 305.474286,121.52 305.794286,121.32 C306.134286,121.14 306.534286,121.24 306.714286,121.58 C307.034286,122.1 307.474286,122.56 307.994286,122.84 C308.474286,123.14 309.054286,123.32 309.674286,123.32 C310.634286,123.32 311.494286,122.94 312.094286,122.3 C312.734286,121.68 313.114286,120.8 313.114286,119.82 C313.114286,118.86 312.734286,117.98 312.094286,117.36 C311.494286,116.74 310.634286,116.34 309.674286,116.34 C309.054286,116.34 308.494286,116.5 307.994286,116.8 C307.474286,117.1 307.034286,117.54 306.714286,118.06 C306.534286,118.4 306.134286,118.52 305.794286,118.34 C305.474286,118.16 305.354286,117.74 305.554286,117.4 C305.974286,116.66 306.574286,116.04 307.294286,115.62 C308.014286,115.2 308.834286,114.98 309.674286,114.98 C311.014286,114.98 312.214286,115.52 313.094286,116.4 C313.934286,117.28 314.474286,118.48 314.474286,119.82 C314.474286,121.16 313.934286,122.36 313.094286,123.24 C312.214286,124.14 311.014286,124.68 309.674286,124.68 C308.834286,124.68 308.014286,124.44 307.294286,124.04 C306.574286,123.6 305.974286,122.98 305.554286,122.24 Z M326.491429,124.54 L325.171429,124.54 C324.811429,124.54 324.511429,124.24 324.511429,123.86 C324.511429,123.5 324.811429,123.2 325.171429,123.2 L326.491429,123.2 C328.471429,123.2 329.731429,121.74 329.731429,119.84 C329.731429,117.96 328.471429,116.5 326.491429,116.5 L325.831429,116.5 L325.831429,121.18 C325.831429,121.56 325.551429,121.86 325.171429,121.86 C324.811429,121.86 324.511429,121.56 324.511429,121.18 L324.511429,115.84 C324.511429,115.46 324.811429,115.16 325.171429,115.16 L326.491429,115.16 C329.231429,115.16 331.051429,117.22 331.051429,119.84 C331.051429,122.48 329.231429,124.54 326.491429,124.54 Z M323.171429,126.54 C323.171429,126.9 322.871429,127.2 322.491429,127.2 C322.131429,127.2 321.831429,126.9 321.831429,126.54 L321.831429,113.16 C321.831429,112.8 322.131429,112.5 322.491429,112.5 L326.491429,112.5 C330.831429,112.5 333.851429,115.62 333.851429,119.84 C333.851429,124.08 330.831429,127.2 326.491429,127.2 L325.151429,127.2 C324.791429,127.2 324.491429,126.9 324.491429,126.54 C324.491429,126.16 324.791429,125.86 325.151429,125.86 L326.491429,125.86 C330.071429,125.86 332.511429,123.34 332.511429,119.84 C332.511429,116.36 330.071429,113.84 326.491429,113.84 L323.171429,113.84 L323.171429,126.54 Z" transform="translate(-270 -112)"/>
</svg>
