<svg xmlns="http://www.w3.org/2000/svg" width="187" height="16" viewBox="0 0 187 16">
  <path fill-rule="evenodd" d="M426.74,196.56 L426.74,193.7 L419.6,193.7 L419.6,208 L422.46,208 L422.46,202.28 L426.1,202.28 L426.1,199.42 L422.46,199.42 L422.46,196.56 L426.74,196.56 Z M441.517143,208 L438.277143,208 L435.397143,202.54 L434.017143,202.54 L434.017143,208 L431.157143,208 L431.157143,193.7 L436.797143,193.7 C441.897143,193.7 442.397143,200.88 438.197143,202.1 L441.517143,208 Z M434.017143,196.56 L434.017143,199.76 L436.537143,199.76 C438.477143,199.76 438.477143,196.56 436.537143,196.56 L434.017143,196.56 Z M444.194285,208 L450.214285,193.18 L450.514285,193.18 L456.534285,208 L453.314285,208 L452.734285,206.46 L447.994285,206.46 L447.434285,208 L444.194285,208 Z M449.034285,203.78 L451.674285,203.78 L450.374285,200.06 L449.034285,203.78 Z M463.451428,200.22 L470.691428,208.3 L471.451428,208.3 L471.451428,193.72 L468.571428,193.72 L468.571428,201.8 L461.351428,193.4 L460.591428,193.4 L460.591428,208 L463.451428,208 L463.451428,200.22 Z M486.568571,193.8 C487.368571,194.14 486.868571,195.36 486.048571,195.04 C485.248571,194.7 484.408571,194.54 483.548571,194.54 C479.948571,194.54 477.388571,197.26 477.388571,200.78 C477.408571,203.92 479.508571,206.98 483.608571,206.98 C484.468571,206.98 485.268571,206.8 486.048571,206.5 C486.868571,206.16 487.368571,207.4 486.568571,207.72 C485.628571,208.1 484.628571,208.3 483.608571,208.3 C478.628571,208.3 476.108571,204.56 476.088571,200.82 C476.068571,197.02 478.568571,193.22 483.608571,193.22 C484.628571,193.22 485.628571,193.42 486.568571,193.8 Z M485.648571,203.72 C486.408571,203.32 487.048571,204.46 486.268571,204.88 C485.408571,205.38 484.468571,205.6 483.548571,205.58 C481.108571,205.54 478.948571,203.74 478.948571,200.78 C478.948571,196.66 483.028571,194.84 486.268571,196.66 C487.048571,197.06 486.408571,198.24 485.648571,197.8 C483.328571,196.52 480.268571,197.66 480.268571,200.78 C480.268571,202.98 481.808571,204.18 483.528571,204.24 C484.228571,204.26 484.968571,204.1 485.648571,203.72 Z M495.185714,204.2 C494.825714,204.2 494.525714,203.9 494.525714,203.52 C494.525714,203.14 494.825714,202.86 495.185714,202.86 L496.145714,202.86 L495.545714,201.38 C495.425714,201.04 495.585714,200.64 495.905714,200.52 C496.265714,200.38 496.645714,200.54 496.785714,200.86 L497.765714,203.26 C497.805714,203.34 497.825714,203.42 497.825714,203.52 C497.825714,203.9 497.505714,204.2 497.125714,204.2 L495.185714,204.2 Z M494.205714,207.66 C494.085714,208 493.705714,208.16 493.345714,208.04 C493.005714,207.88 492.845714,207.5 492.985714,207.16 L493.465714,205.94 C493.585714,205.7 493.845714,205.52 494.085714,205.52 L498.225714,205.52 C498.525714,205.52 498.785714,205.74 498.865714,206 L499.345714,207.16 C499.465714,207.5 499.325714,207.88 498.985714,208.04 C498.645714,208.16 498.245714,208.02 498.105714,207.66 L497.785714,206.88 L494.545714,206.88 L494.205714,207.66 Z M491.345714,207.66 C491.185714,208 490.805714,208.16 490.465714,208.04 C490.145714,207.88 489.965714,207.5 490.085714,207.16 L495.545714,193.52 C495.685714,193.16 496.085714,193 496.405714,193.14 C496.605714,193.2 496.725714,193.36 496.785714,193.52 L502.225714,207.16 C502.365714,207.5 502.205714,207.88 501.865714,208.04 C501.525714,208.16 501.125714,208 500.985714,207.66 L496.165714,195.52 L491.345714,207.66 Z M512.042856,205.54 C511.562856,205.54 510.622856,205.68 510.622856,204.86 C510.622856,203.56 512.742856,204.84 512.742856,203.52 C512.742856,203.12 512.462856,202.84 512.042856,202.84 L509.702856,202.84 C508.822856,202.84 508.822856,201.52 509.702856,201.52 L512.042856,201.52 C513.902856,201.52 514.762856,203.7 513.482856,204.96 C513.122856,205.32 512.622856,205.54 512.042856,205.54 Z M509.702856,197.48 C508.822856,197.48 508.822856,196.14 509.702856,196.14 L512.042856,196.14 C513.902856,196.14 514.762856,198.36 513.482856,199.6 C512.802856,200.26 512.122856,200.18 511.302856,200.18 C510.422856,200.18 510.422856,198.84 511.302856,198.84 C511.842856,198.84 512.742856,198.98 512.742856,198.16 C512.742856,197.78 512.462856,197.48 512.042856,197.48 L509.702856,197.48 Z M507.682856,207.56 C507.682856,208.44 506.342856,208.44 506.342856,207.56 L506.342856,194.12 C506.342856,193.76 506.642856,193.44 507.002856,193.44 L512.282856,193.44 C515.022856,193.44 516.922856,195.6 516.922856,198.12 C516.922856,199.06 516.682856,200 516.102856,200.84 C518.222856,203.92 516.042856,208.24 512.302856,208.24 L509.702856,208.24 C508.822856,208.24 508.822856,206.88 509.702856,206.88 L512.302856,206.88 C515.362856,206.88 516.522856,203.14 514.762856,201.34 C513.982856,200.5 515.582856,200.26 515.582856,198.16 C515.582856,196.32 514.122856,194.8 512.282856,194.8 L507.682856,194.8 L507.682856,207.56 Z M525.399999,204.2 C525.039999,204.2 524.739999,203.9 524.739999,203.52 C524.739999,203.14 525.039999,202.86 525.399999,202.86 L526.359999,202.86 L525.759999,201.38 C525.639999,201.04 525.799999,200.64 526.119999,200.52 C526.479999,200.38 526.859999,200.54 526.999999,200.86 L527.979999,203.26 C528.019999,203.34 528.039999,203.42 528.039999,203.52 C528.039999,203.9 527.719999,204.2 527.339999,204.2 L525.399999,204.2 Z M524.419999,207.66 C524.299999,208 523.919999,208.16 523.559999,208.04 C523.219999,207.88 523.059999,207.5 523.199999,207.16 L523.679999,205.94 C523.799999,205.7 524.059999,205.52 524.299999,205.52 L528.439999,205.52 C528.739999,205.52 528.999999,205.74 529.079999,206 L529.559999,207.16 C529.679999,207.5 529.539999,207.88 529.199999,208.04 C528.859999,208.16 528.459999,208.02 528.319999,207.66 L527.999999,206.88 L524.759999,206.88 L524.419999,207.66 Z M521.559999,207.66 C521.399999,208 521.019999,208.16 520.679999,208.04 C520.359999,207.88 520.179999,207.5 520.299999,207.16 L525.759999,193.52 C525.899999,193.16 526.299999,193 526.619999,193.14 C526.819999,193.2 526.939999,193.36 526.999999,193.52 L532.439999,207.16 C532.579999,207.5 532.419999,207.88 532.079999,208.04 C531.739999,208.16 531.339999,208 531.199999,207.66 L526.379999,195.52 L521.559999,207.66 Z M545.017142,206.86 C545.397142,206.86 545.677142,207.16 545.677142,207.54 C545.677142,207.9 545.397142,208.2 545.017142,208.2 L537.237142,208.2 C536.857142,208.2 536.557142,207.9 536.557142,207.54 L536.557142,194.16 C536.557142,193.8 536.857142,193.5 537.237142,193.5 C537.597142,193.5 537.897142,193.8 537.897142,194.16 L537.897142,206.86 L545.017142,206.86 Z M539.237142,194.16 C539.237142,193.8 539.537142,193.5 539.897142,193.5 C540.277142,193.5 540.577142,193.8 540.577142,194.16 L540.577142,204.18 L545.017142,204.18 C545.397142,204.18 545.677142,204.48 545.677142,204.86 C545.677142,205.22 545.397142,205.52 545.017142,205.52 L539.897142,205.52 C539.537142,205.52 539.237142,205.22 539.237142,204.86 L539.237142,194.16 Z M558.654285,206.86 C559.034285,206.86 559.314285,207.16 559.314285,207.54 C559.314285,207.9 559.034285,208.2 558.654285,208.2 L550.874285,208.2 C550.494285,208.2 550.194285,207.9 550.194285,207.54 L550.194285,194.16 C550.194285,193.8 550.494285,193.5 550.874285,193.5 C551.234285,193.5 551.534285,193.8 551.534285,194.16 L551.534285,206.86 L558.654285,206.86 Z M552.874285,194.16 C552.874285,193.8 553.174285,193.5 553.534285,193.5 C553.914285,193.5 554.214285,193.8 554.214285,194.16 L554.214285,204.18 L558.654285,204.18 C559.034285,204.18 559.314285,204.48 559.314285,204.86 C559.314285,205.22 559.034285,205.52 558.654285,205.52 L553.534285,205.52 C553.174285,205.52 552.874285,205.22 552.874285,204.86 L552.874285,194.16 Z M571.411427,196.18 C571.791427,196.18 572.091427,196.46 572.091427,196.84 C572.091427,197.2 571.791427,197.5 571.411427,197.5 L567.831427,197.5 L567.831427,198.84 L570.171427,198.84 C570.551427,198.84 570.851427,199.14 570.851427,199.52 C570.851427,199.88 570.551427,200.18 570.171427,200.18 L567.171427,200.18 C566.791427,200.18 566.491427,199.88 566.491427,199.52 L566.491427,196.84 C566.491427,196.46 566.791427,196.18 567.171427,196.18 L571.411427,196.18 Z M570.171427,201.52 C570.551427,201.52 570.851427,201.82 570.851427,202.18 C570.851427,202.56 570.551427,202.86 570.171427,202.86 L567.831427,202.86 L567.831427,204.18 L571.411427,204.18 C571.791427,204.18 572.091427,204.48 572.091427,204.86 C572.091427,205.22 571.791427,205.52 571.411427,205.52 L567.171427,205.52 C566.791427,205.52 566.491427,205.22 566.491427,204.86 L566.491427,202.18 C566.491427,201.82 566.791427,201.52 567.171427,201.52 L570.171427,201.52 Z M571.411427,206.86 C571.791427,206.86 572.091427,207.16 572.091427,207.54 C572.091427,207.9 571.791427,208.2 571.411427,208.2 L564.491427,208.2 C564.131427,208.2 563.831427,207.9 563.831427,207.54 L563.831427,194.16 C563.831427,193.8 564.131427,193.5 564.491427,193.5 L571.411427,193.5 C571.791427,193.5 572.091427,193.8 572.091427,194.16 C572.091427,194.54 571.791427,194.84 571.411427,194.84 L565.171427,194.84 L565.171427,206.86 L571.411427,206.86 Z M582.54857,200.18 C582.36857,200.18 582.10857,200.2 581.88857,200.18 C580.84857,200.12 580.80857,198.86 581.88857,198.86 C582.50857,198.86 583.24857,198.96 583.24857,198.18 C583.24857,197.78 582.92857,197.5 582.54857,197.5 L580.16857,197.5 C579.28857,197.5 579.28857,196.16 580.16857,196.16 L582.54857,196.16 C583.76857,196.16 584.56857,197.18 584.56857,198.2 C584.56857,199.32 583.64857,200.18 582.54857,200.18 Z M583.78857,207.14 C584.28857,207.86 583.20857,208.64 582.68857,207.92 L580.84857,205.26 L580.84857,207.54 C580.84857,208.42 579.50857,208.42 579.50857,207.54 L579.50857,203.18 C579.50857,202.46 580.34857,202.26 580.72857,202.76 L583.78857,207.14 Z M578.16857,207.54 C578.16857,208.42 576.82857,208.42 576.82857,207.54 L576.82857,194.16 C576.82857,193.8 577.14857,193.5 577.50857,193.5 L582.76857,193.5 C586.86857,193.5 588.92857,198.52 586.04857,201.48 C585.46857,202.06 584.74857,202.5 583.94857,202.7 L587.04857,207.14 C587.54857,207.86 586.44857,208.64 585.96857,207.92 L582.26857,202.62 C581.86857,202.1 582.26857,201.52 582.76857,201.52 C585.70857,201.52 587.14857,197.88 585.08857,195.8 C584.48857,195.2 583.66857,194.84 582.76857,194.84 L578.16857,194.84 L578.16857,207.54 Z M605.865713,198.54 C605.965713,198.9 605.785713,199.28 605.425713,199.38 C605.065713,199.5 604.665713,199.3 604.565713,198.94 C604.145713,197.66 603.345713,196.56 602.245713,195.76 C601.205713,195.02 599.905713,194.56 598.485713,194.56 C590.145713,194.56 590.145713,207.08 598.485713,207.08 C599.905713,207.08 601.205713,206.64 602.245713,205.88 C603.345713,205.1 604.145713,204 604.565713,202.7 C604.665713,202.34 605.065713,202.16 605.425713,202.26 C605.785713,202.36 605.965713,202.76 605.865713,203.12 C605.365713,204.68 604.365713,206.04 603.065713,206.98 C601.765713,207.9 600.205713,208.46 598.485713,208.46 C588.345713,208.46 588.345713,193.2 598.485713,193.2 C600.205713,193.2 601.765713,193.74 603.065713,194.66 C604.365713,195.62 605.365713,196.96 605.865713,198.54 Z M594.365713,203.24 C594.165713,202.9 594.285713,202.52 594.605713,202.32 C594.945713,202.14 595.345713,202.24 595.525713,202.58 C595.845713,203.1 596.285713,203.56 596.805713,203.84 C597.285713,204.14 597.865713,204.32 598.485713,204.32 C599.445713,204.32 600.305713,203.94 600.905713,203.3 C601.545713,202.68 601.925713,201.8 601.925713,200.82 C601.925713,199.86 601.545713,198.98 600.905713,198.36 C600.305713,197.74 599.445713,197.34 598.485713,197.34 C597.865713,197.34 597.305713,197.5 596.805713,197.8 C596.285713,198.1 595.845713,198.54 595.525713,199.06 C595.345713,199.4 594.945713,199.52 594.605713,199.34 C594.285713,199.16 594.165713,198.74 594.365713,198.4 C594.785713,197.66 595.385713,197.04 596.105713,196.62 C596.825713,196.2 597.645713,195.98 598.485713,195.98 C599.825713,195.98 601.025713,196.52 601.905713,197.4 C602.745713,198.28 603.285713,199.48 603.285713,200.82 C603.285713,202.16 602.745713,203.36 601.905713,204.24 C601.025713,205.14 599.825713,205.68 598.485713,205.68 C597.645713,205.68 596.825713,205.44 596.105713,205.04 C595.385713,204.6 594.785713,203.98 594.365713,203.24 Z" transform="translate(-419 -193)"/>
</svg>
