<svg xmlns="http://www.w3.org/2000/svg" width="77" height="16" viewBox="0 0 77 16">
  <path fill-rule="evenodd" d="M677.94,126.54 L677.94,113.16 C677.94,112.8 677.64,112.5 677.26,112.5 C676.9,112.5 676.6,112.8 676.6,113.16 L676.6,126.54 C676.6,126.9 676.9,127.2 677.26,127.2 C677.64,127.2 677.94,126.9 677.94,126.54 Z M683.56,126.14 C683.76,126.46 683.7,126.86 683.38,127.08 C683.08,127.28 682.68,127.22 682.46,126.92 L680.6,124.26 L680.6,126.54 C680.6,126.9 680.32,127.2 679.94,127.2 C679.58,127.2 679.28,126.9 679.28,126.54 L679.28,122.16 C679.28,121.48 680.12,121.22 680.48,121.76 L683.56,126.14 Z M682.46,112.78 C682.68,112.48 683.08,112.4 683.38,112.62 C683.7,112.84 683.76,113.24 683.56,113.54 L680.48,117.94 C680.28,118.24 679.86,118.32 679.56,118.1 C679.36,117.96 679.28,117.76 679.28,117.52 L679.28,113.16 C679.28,112.8 679.58,112.5 679.94,112.5 C680.32,112.5 680.6,112.8 680.6,113.16 L680.6,115.44 L682.46,112.78 Z M685.72,112.78 C685.94,112.48 686.34,112.4 686.64,112.62 C686.96,112.84 687.02,113.24 686.82,113.54 L682.42,119.84 L686.82,126.14 C687.02,126.46 686.96,126.86 686.64,127.08 C686.34,127.28 685.94,127.22 685.72,126.92 L681.06,120.24 C680.9,120.02 680.9,119.7 681.06,119.46 L685.72,112.78 Z M698.457143,115.18 C698.837143,115.18 699.137143,115.46 699.137143,115.84 C699.137143,116.2 698.837143,116.5 698.457143,116.5 L694.877143,116.5 L694.877143,117.84 L697.217143,117.84 C697.597143,117.84 697.897143,118.14 697.897143,118.52 C697.897143,118.88 697.597143,119.18 697.217143,119.18 L694.217143,119.18 C693.837143,119.18 693.537143,118.88 693.537143,118.52 L693.537143,115.84 C693.537143,115.46 693.837143,115.18 694.217143,115.18 L698.457143,115.18 Z M697.217143,120.52 C697.597143,120.52 697.897143,120.82 697.897143,121.18 C697.897143,121.56 697.597143,121.86 697.217143,121.86 L694.877143,121.86 L694.877143,123.18 L698.457143,123.18 C698.837143,123.18 699.137143,123.48 699.137143,123.86 C699.137143,124.22 698.837143,124.52 698.457143,124.52 L694.217143,124.52 C693.837143,124.52 693.537143,124.22 693.537143,123.86 L693.537143,121.18 C693.537143,120.82 693.837143,120.52 694.217143,120.52 L697.217143,120.52 Z M698.457143,125.86 C698.837143,125.86 699.137143,126.16 699.137143,126.54 C699.137143,126.9 698.837143,127.2 698.457143,127.2 L691.537143,127.2 C691.177143,127.2 690.877143,126.9 690.877143,126.54 L690.877143,113.16 C690.877143,112.8 691.177143,112.5 691.537143,112.5 L698.457143,112.5 C698.837143,112.5 699.137143,112.8 699.137143,113.16 C699.137143,113.54 698.837143,113.84 698.457143,113.84 L692.217143,113.84 L692.217143,125.86 L698.457143,125.86 Z M705.194286,126.54 L705.194286,113.16 C705.194286,112.8 704.914286,112.52 704.534286,112.52 C704.174286,112.52 703.874286,112.8 703.874286,113.16 L703.874286,126.54 C703.874286,126.9 704.174286,127.22 704.534286,127.22 C704.914286,127.22 705.194286,126.9 705.194286,126.54 Z M716.114286,126.54 L716.114286,113.16 C716.114286,112.8 715.814286,112.52 715.434286,112.52 C715.074286,112.52 714.774286,112.8 714.774286,113.16 L714.774286,126.54 C714.774286,126.9 715.074286,127.22 715.434286,127.22 C715.814286,127.22 716.114286,126.9 716.114286,126.54 Z M713.574286,126.16 C713.774286,126.46 713.694286,126.86 713.414286,127.1 C713.094286,127.3 712.694286,127.22 712.474286,126.92 L707.874286,120.34 L707.874286,126.54 C707.874286,126.9 707.574286,127.2 707.194286,127.2 C706.834286,127.2 706.554286,126.9 706.554286,126.54 L706.554286,118.22 C706.554286,118 706.634286,117.8 706.834286,117.68 C707.114286,117.44 707.554286,117.52 707.754286,117.84 L713.574286,126.16 Z M706.414286,113.56 C706.194286,113.24 706.274286,112.84 706.574286,112.64 C706.874286,112.4 707.294286,112.5 707.494286,112.8 L712.094286,119.38 L712.094286,113.16 C712.094286,112.8 712.414286,112.52 712.774286,112.52 C713.134286,112.52 713.434286,112.8 713.434286,113.16 L713.434286,121.48 C713.434286,121.7 713.334286,121.92 713.134286,122.04 C712.834286,122.26 712.434286,122.18 712.214286,121.88 L706.414286,113.56 Z M726.051429,124.54 L724.731429,124.54 C724.371429,124.54 724.071429,124.24 724.071429,123.86 C724.071429,123.5 724.371429,123.2 724.731429,123.2 L726.051429,123.2 C728.031429,123.2 729.291429,121.74 729.291429,119.84 C729.291429,117.96 728.031429,116.5 726.051429,116.5 L725.391429,116.5 L725.391429,121.18 C725.391429,121.56 725.111429,121.86 724.731429,121.86 C724.371429,121.86 724.071429,121.56 724.071429,121.18 L724.071429,115.84 C724.071429,115.46 724.371429,115.16 724.731429,115.16 L726.051429,115.16 C728.791429,115.16 730.611429,117.22 730.611429,119.84 C730.611429,122.48 728.791429,124.54 726.051429,124.54 Z M722.731429,126.54 C722.731429,126.9 722.431429,127.2 722.051429,127.2 C721.691429,127.2 721.391429,126.9 721.391429,126.54 L721.391429,113.16 C721.391429,112.8 721.691429,112.5 722.051429,112.5 L726.051429,112.5 C730.391429,112.5 733.411429,115.62 733.411429,119.84 C733.411429,124.08 730.391429,127.2 726.051429,127.2 L724.711429,127.2 C724.351429,127.2 724.051429,126.9 724.051429,126.54 C724.051429,126.16 724.351429,125.86 724.711429,125.86 L726.051429,125.86 C729.631429,125.86 732.071429,123.34 732.071429,119.84 C732.071429,116.36 729.631429,113.84 726.051429,113.84 L722.731429,113.84 L722.731429,126.54 Z M752.648572,117.54 C752.748572,117.9 752.568572,118.28 752.208572,118.38 C751.848572,118.5 751.448572,118.3 751.348572,117.94 C750.928572,116.66 750.128572,115.56 749.028572,114.76 C747.988572,114.02 746.688572,113.56 745.268572,113.56 C736.928572,113.56 736.928572,126.08 745.268572,126.08 C746.688572,126.08 747.988572,125.64 749.028572,124.88 C750.128572,124.1 750.928572,123 751.348572,121.7 C751.448572,121.34 751.848572,121.16 752.208572,121.26 C752.568572,121.36 752.748572,121.76 752.648572,122.12 C752.148572,123.68 751.148572,125.04 749.848572,125.98 C748.548572,126.9 746.988572,127.46 745.268572,127.46 C735.128572,127.46 735.128572,112.2 745.268572,112.2 C746.988572,112.2 748.548572,112.74 749.848572,113.66 C751.148572,114.62 752.148572,115.96 752.648572,117.54 Z M741.148572,122.24 C740.948572,121.9 741.068572,121.52 741.388572,121.32 C741.728572,121.14 742.128572,121.24 742.308572,121.58 C742.628572,122.1 743.068572,122.56 743.588572,122.84 C744.068572,123.14 744.648572,123.32 745.268572,123.32 C746.228572,123.32 747.088572,122.94 747.688572,122.3 C748.328572,121.68 748.708572,120.8 748.708572,119.82 C748.708572,118.86 748.328572,117.98 747.688572,117.36 C747.088572,116.74 746.228572,116.34 745.268572,116.34 C744.648572,116.34 744.088572,116.5 743.588572,116.8 C743.068572,117.1 742.628572,117.54 742.308572,118.06 C742.128572,118.4 741.728572,118.52 741.388572,118.34 C741.068572,118.16 740.948572,117.74 741.148572,117.4 C741.568572,116.66 742.168572,116.04 742.888572,115.62 C743.608572,115.2 744.428572,114.98 745.268572,114.98 C746.608572,114.98 747.808572,115.52 748.688572,116.4 C749.528572,117.28 750.068572,118.48 750.068572,119.82 C750.068572,121.16 749.528572,122.36 748.688572,123.24 C747.808572,124.14 746.608572,124.68 745.268572,124.68 C744.428572,124.68 743.608572,124.44 742.888572,124.04 C742.168572,123.6 741.568572,122.98 741.148572,122.24 Z" transform="translate(-676 -112)"/>
</svg>
